<svg xmlns="http://www.w3.org/2000/svg" width="18.369" height="17.892" viewBox="0 0 18.369 17.892">
  <path id="Path_23737" data-name="Path 23737" d="M4581.193,1716.875a7.539,7.539,0,0,0,.046-1.656,3.476,3.476,0,0,0-1.233-2.616,7.664,7.664,0,0,0,.074-2.239,3.584,3.584,0,0,0-.433-1.335,2.361,2.361,0,0,0-.935-.9,1.089,1.089,0,0,0-.39-.706,1.327,1.327,0,0,0-.951-.084,7.7,7.7,0,0,0-1.585-.5,4.881,4.881,0,0,0-1.536-.075,2.838,2.838,0,0,0-1.332.5c-.152-.082-.309-.158-.472-.228a8.563,8.563,0,0,0-2.836-.543,3.69,3.69,0,0,0-2.922.943,1.087,1.087,0,0,0-.777.223,1.327,1.327,0,0,0-.294.905,7.517,7.517,0,0,0-.849,1.409,3.56,3.56,0,0,0-.243,2.85,5.569,5.569,0,0,0-1.134,1.725,3.353,3.353,0,0,0,.01,2.956,1.087,1.087,0,0,0-.078.8,1.334,1.334,0,0,0,.742.61c.314.476,1.8,2.568,3.69,2.568h.028a3.966,3.966,0,0,0,1.246,1.678,3.6,3.6,0,0,0,2.247.832c.08,0,.161,0,.242-.009a1.082,1.082,0,0,0,.7.4h.031a1.4,1.4,0,0,0,.844-.443c.535-.154,3.283-1.033,3.531-2.926l.14-.016a7.9,7.9,0,0,0,2.358-.635,3.571,3.571,0,0,0,1.142-.817,2.354,2.354,0,0,0,.577-1.163,1.083,1.083,0,0,0,.555-.585,1.321,1.321,0,0,0-.2-.927m-3.988-8.929.107.052.114-.032a1.036,1.036,0,0,1,.546-.03.71.71,0,0,1,.142.416l.011.19.175.077a2.13,2.13,0,0,1,1.163,1.829,7.259,7.259,0,0,1-.1,2.245,4.362,4.362,0,0,1-.808,1.86,9.581,9.581,0,0,0-.333-1.963,4.085,4.085,0,0,0-2.955-3.007c-.06-.017-.119-.033-.177-.047a5.113,5.113,0,0,0-1.583-1.9c1.434-.772,3.678.3,3.7.311m-9.667,9.245a7.676,7.676,0,0,1,.258-5.425l.019-.043c.282-.633.944-2.116,3.913-2.116a3.112,3.112,0,0,1,2.077,1,4.519,4.519,0,0,1,.937,1.484l-.031-.032c-.069-.069-.141-.132-.213-.191a.458.458,0,0,0-.351-.247,3.52,3.52,0,0,0-1.822-.474c-1.646.015-2.642,1.76-3.121,2.917a10.185,10.185,0,0,1-.1-2.569.312.312,0,0,0-.62-.07,10.593,10.593,0,0,0-.006,1.883,6.01,6.01,0,0,0,1.125,3.309c.054.067.109.13.167.191a8.8,8.8,0,0,0,1.665,2.3h0l0,0c.078.076.155.15.234.223a4.258,4.258,0,0,1-2.046-.2,3.424,3.424,0,0,1-2.087-1.94m2.548-.971a3.871,3.871,0,0,1-.6-1.1,8.62,8.62,0,0,1,.7-1.669,5.083,5.083,0,0,1,.6-.866,2.063,2.063,0,0,0,.187.187,3.311,3.311,0,0,0,1.568.719h0c.061.012.123.023.185.034.2.032.8.131,1.035,1.417a8.358,8.358,0,0,1,.064,1.907,2.979,2.979,0,0,1-1.511.372,2.73,2.73,0,0,1-2.239-1m2.328-3.4a2.256,2.256,0,0,1-1.167-.659,1.814,1.814,0,0,1,1.081-.4,2.972,2.972,0,0,1,1.272.266l-.056.027a2.918,2.918,0,0,0-1.13.763m1.972,2.012a3.123,3.123,0,0,0-.453-1.209,1.626,1.626,0,0,0-.8-.635l.058-.038a6.278,6.278,0,0,1,.624-.331c.147-.071.275-.133.379-.193.025.023.05.046.075.071a3.648,3.648,0,0,1,.9,2.658,3.747,3.747,0,0,1-.682,1.167,7.612,7.612,0,0,0-.1-1.489m-2.549,3.792a8.26,8.26,0,0,1-.845-1,3.815,3.815,0,0,0,1.333.224,3.354,3.354,0,0,0,2.614-1.1,5.777,5.777,0,0,0,1.248-3.368,10.555,10.555,0,0,0,.009-1.959.312.312,0,0,0-.62.068,9.533,9.533,0,0,1,.029,1.239,7.15,7.15,0,0,0-.227-.729,5.207,5.207,0,0,0-1.128-1.83c-.056-.057-.112-.112-.169-.165a5.388,5.388,0,0,1,.622.086.311.311,0,0,0,.235.053c.051.013.1.026.153.041a3.447,3.447,0,0,1,2.524,2.569,7.651,7.651,0,0,1,.306,2.626.3.3,0,0,0-.009.094,4.053,4.053,0,0,1-1.773,2.894,3.714,3.714,0,0,1-4.3.26m-5.665-9.753.078-.094-.006-.121a1.02,1.02,0,0,1,.093-.539.711.711,0,0,1,.438-.046l.188.032.114-.153c.989-1.329,4.109-.774,5.127-.339a4.475,4.475,0,0,1,2.093,1.785,5.934,5.934,0,0,0-1.1-.018,3.281,3.281,0,0,0-1.468-.4,5.283,5.283,0,0,0-3.375.976,3.7,3.7,0,0,0-1.065,1.415,7.255,7.255,0,0,0-2.244,1.042c-.484-1.57,1.112-3.524,1.129-3.544m-1.633,9.626-.06-.1-.106-.036a1.034,1.034,0,0,1-.466-.284.711.711,0,0,1,.118-.423l.1-.163-.1-.162a2.757,2.757,0,0,1-.054-2.543,4.653,4.653,0,0,1,1.131-1.643,6.59,6.59,0,0,1,1.891-1.029,8.024,8.024,0,0,0-.027,5.317,4.3,4.3,0,0,0,.49.863c0,.007,0,.014,0,.021a10.02,10.02,0,0,0,.181,2.538c-1.68-.108-3.08-2.335-3.094-2.359m8.313,4.865-.088.023-.062.067a1.036,1.036,0,0,1-.45.309c-.083,0-.248-.152-.338-.281l-.108-.157-.189.025a2.549,2.549,0,0,1-.337.022,2.982,2.982,0,0,1-1.857-.695,3.16,3.16,0,0,1-1.1-1.587,10.121,10.121,0,0,1-.26-2.142,4.258,4.258,0,0,0,1.358.77,4.656,4.656,0,0,0,1.607.277,6.221,6.221,0,0,0,1.287-.143,6.47,6.47,0,0,0,1.308.742,5.929,5.929,0,0,0,2.309.461h.06c-.339,1.556-3.106,2.3-3.135,2.308m7.949-5.742a.713.713,0,0,1-.354.262l-.178.068-.021.19a2.134,2.134,0,0,1-1.392,1.662,7.286,7.286,0,0,1-2.172.58,5.372,5.372,0,0,1-3.38-.629,4.353,4.353,0,0,0,.631.047,3.973,3.973,0,0,0,.747-.07,4.174,4.174,0,0,0,1.843-.877,5.1,5.1,0,0,0,1.753-2.237,4.563,4.563,0,0,0,.242-1.03,5.839,5.839,0,0,0,1.337-2.29c1.125,1.137.707,3.561.7,3.587l-.022.123.068.1a1.027,1.027,0,0,1,.194.511" transform="translate(-4563.057 -1706.495)" fill="#fff"/>
</svg>
