<svg xmlns="http://www.w3.org/2000/svg" width="23" height="20" viewBox="0 0 23 20">
  <g id="Group_10918" data-name="Group 10918" transform="translate(15875.5 9495.5)">
    <g id="Group_10912" data-name="Group 10912">
      <g id="Group_10911" data-name="Group 10911">
        <g id="Group_10910" data-name="Group 10910">
          <path id="Path_19" data-name="Path 19" d="M22.586,14.032A9.419,9.419,0,0,0,24,9.282,5.373,5.373,0,0,0,18.539,4H18.5A5.969,5.969,0,0,0,13,7.534,5.969,5.969,0,0,0,7.5,4,5.377,5.377,0,0,0,2,9.244v.038C2,13.842,6.046,18.44,13,23l.943-.608" transform="translate(-15877 -9499)" fill="none" stroke="#000" stroke-linecap="round" stroke-linejoin="round" stroke-width="1"/>
          <path id="Path_20" data-name="Path 20" d="M3.414,14.032A9.419,9.419,0,0,1,2,9.282,5.373,5.373,0,0,1,7.461,4H7.5A5.969,5.969,0,0,1,13,7.534,5.969,5.969,0,0,1,18.5,4,5.377,5.377,0,0,1,24,9.244v.038C24,13.842,19.953,18.44,13,23l-.943-.608" transform="translate(-15877 -9499)" fill="none" stroke="#000" stroke-linecap="round" stroke-linejoin="round" stroke-width="1"/>
        </g>
      </g>
    </g>
  </g>
</svg>
