<svg xmlns="http://www.w3.org/2000/svg" xmlns:xlink="http://www.w3.org/1999/xlink" width="8" height="4.5" viewBox="0 0 8 4.5">
  <defs>
    <clipPath id="clip-path">
      <path id="Path_23714" data-name="Path 23714" d="M0,0H8V-4.5H0Z" transform="translate(0 4.5)" fill="#a68f54"/>
    </clipPath>
  </defs>
  <g id="Group_10587" data-name="Group 10587" clip-path="url(#clip-path)">
    <g id="Group_10586" data-name="Group 10586" transform="translate(0 0)">
      <path id="Path_23713" data-name="Path 23713" d="M0,0H-7a.486.486,0,0,0-.352.148A.482.482,0,0,0-7.5.5a.482.482,0,0,0,.148.352l3.5,3.5A.482.482,0,0,0-3.5,4.5a.482.482,0,0,0,.352-.148l3.5-3.5A.486.486,0,0,0,.5.5.486.486,0,0,0,.352.148.486.486,0,0,0,0,0" transform="translate(7.5)" fill="#a68f54"/>
    </g>
  </g>
</svg>
