<svg xmlns="http://www.w3.org/2000/svg" width="18.908" height="18.87" viewBox="0 0 18.908 18.87">
  <g id="Group_10908" data-name="Group 10908" transform="translate(-1536.592 -6731.5)">
    <path id="Union_1" data-name="Union 1" d="M-2317.428-5.131h-7.238A5.336,5.336,0,0,1-2330-10.453v-7.223A5.335,5.335,0,0,1-2324.666-23h7.238a5.335,5.335,0,0,1,5.336,5.323v7.223a5.335,5.335,0,0,1-5.334,5.324Z" transform="translate(3867.092 6755)" stroke="rgba(0,0,0,0)" stroke-miterlimit="10" stroke-width="1"/>
    <path id="Path_15" data-name="Path 15" d="M21.552,4.333H23.12V2H21.265c-2.238.1-2.7,1.358-2.735,2.678V5.844H17V8.12h1.53v6.12h2.3V8.12h1.893l.363-2.276H20.825V5.137a.758.758,0,0,1,.71-.8Z" transform="translate(1525.986 6732.88)" fill="#fff"/>
  </g>
</svg>
