<svg xmlns="http://www.w3.org/2000/svg" width="142.944" height="33.395" viewBox="0 0 142.944 33.395">
  <g id="Group_12" data-name="Group 12" transform="translate(-327.231 -247.336)">
    <path id="Path_4" data-name="Path 4" d="M436.348,321.159a.242.242,0,0,1-.2-.1.645.645,0,0,1-.118-.252,1.34,1.34,0,0,1-.038-.332,1.073,1.073,0,0,1,.053-.343l.048-.117q.027-.064.2-.053a3.237,3.237,0,0,0,.935-.086,4.132,4.132,0,0,0,.8-.288,5.759,5.759,0,0,0,.722-.417c.231-.156.465-.313.7-.47a.111.111,0,0,1,.086-.017.211.211,0,0,1,.1.027,3.079,3.079,0,0,1,.252.187.447.447,0,0,1,.155.272.859.859,0,0,1,.016.284,2.656,2.656,0,0,1-.054.293q-.037.161-.091.348a4.386,4.386,0,0,0-.1.434q.321-.257.7-.6a8.588,8.588,0,0,1,.823-.664,5.358,5.358,0,0,1,.947-.534,2.65,2.65,0,0,1,1.069-.219,2.147,2.147,0,0,1,1.106.278,2.549,2.549,0,0,1,.8.727,3.28,3.28,0,0,1,.481,1.016,4.163,4.163,0,0,1,.16,1.134,4.421,4.421,0,0,1-.171,1.176,6.784,6.784,0,0,1-.475,1.23,7.853,7.853,0,0,1-.728,1.176,6.922,6.922,0,0,1-.936,1.027,5.822,5.822,0,0,1-1.1.781,4.121,4.121,0,0,1-1.209.438c-.107.014-.212.027-.315.038s-.208.016-.315.016a3.319,3.319,0,0,1-1.15-.187,1.766,1.766,0,0,1-.785-.53.386.386,0,0,1-.086-.251.964.964,0,0,1,.224-.455,1.867,1.867,0,0,1,.252-.3.323.323,0,0,1,.182-.1.2.2,0,0,1,.15.054,1.539,1.539,0,0,1,.155.155,2.154,2.154,0,0,0,.54.439,1.638,1.638,0,0,0,.839.193,1.758,1.758,0,0,0,.909-.246,2.978,2.978,0,0,0,.754-.642,4.654,4.654,0,0,0,.594-.893,7.9,7.9,0,0,0,.434-1,6.632,6.632,0,0,0,.261-.957,4.234,4.234,0,0,0,.086-.765c0-.114-.006-.25-.016-.406s-.03-.323-.059-.5a3.379,3.379,0,0,0-.128-.519,1.978,1.978,0,0,0-.214-.454,1.142,1.142,0,0,0-.315-.326.767.767,0,0,0-.444-.128,1.472,1.472,0,0,0-.578.134,3.845,3.845,0,0,0-.625.348,6.377,6.377,0,0,0-.62.482q-.305.266-.561.535t-.449.508a2.764,2.764,0,0,0-.278.4,4.728,4.728,0,0,0-.407,1.01q-.171.594-.342,1.257-.15.545-.31,1.08a7.282,7.282,0,0,1-.38,1,3.65,3.65,0,0,1-.508.807,1.732,1.732,0,0,1-.684.5.238.238,0,0,1-.262-.042.683.683,0,0,1-.144-.257,1.181,1.181,0,0,1-.059-.337c0-.118,0-.216,0-.295a3.229,3.229,0,0,1,.1-.8,6,6,0,0,1,.262-.786c.107-.26.225-.517.353-.77s.254-.5.374-.754q.214-.482.369-.952a3.117,3.117,0,0,0,.155-.984c0-.093-.005-.21-.016-.353a3.633,3.633,0,0,0-.054-.412,1.8,1.8,0,0,0-.1-.342c-.039-.1-.084-.145-.134-.145a.581.581,0,0,0-.262.1q-.166.1-.385.208c-.147.075-.3.144-.46.209a1.129,1.129,0,0,1-.476.085m13.613,2.5a.33.33,0,0,1,.182.042.119.119,0,0,1,.064.1.178.178,0,0,1-.064.118,1.911,1.911,0,0,0-.278.417,5.694,5.694,0,0,0-.257.572,5.09,5.09,0,0,0-.192.6,2.159,2.159,0,0,0-.075.513c0,.136.053.2.16.2a.5.5,0,0,0,.241-.085,2.371,2.371,0,0,0,.305-.219q.16-.134.337-.289l.326-.288a3.423,3.423,0,0,1,.268-.219.361.361,0,0,1,.171-.086c.1,0,.15.057.15.171a.978.978,0,0,1-.117.412,1.618,1.618,0,0,1-.257.39,5.8,5.8,0,0,1-1.171,1.027,2.075,2.075,0,0,1-1.107.353.681.681,0,0,1-.663-.321.917.917,0,0,1-.107-.374,2.562,2.562,0,0,1-.727.524,2.048,2.048,0,0,1-.909.2.731.731,0,0,1-.545-.246,1.5,1.5,0,0,1-.343-.566,1.153,1.153,0,0,1-.075-.418,2.744,2.744,0,0,1,.4-1.4,4.393,4.393,0,0,1,1.053-1.209,5.439,5.439,0,0,1,1.519-.85,5.091,5.091,0,0,1,1.791-.321q.481,0,.556.311a1.232,1.232,0,0,1,.043.133.644.644,0,0,1,.022.166.17.17,0,0,1-.193.192.957.957,0,0,1-.272-.043,1.045,1.045,0,0,0-.294-.042,3,3,0,0,0-1.187.246,3.693,3.693,0,0,0-1.021.642,3.308,3.308,0,0,0-.711.882,2,2,0,0,0-.268.967.431.431,0,0,0,.059.22.333.333,0,0,0,.252.133.738.738,0,0,0,.438-.128,1.456,1.456,0,0,0,.331-.331,2.918,2.918,0,0,0,.294-.513c.075-.171.145-.335.209-.492s.132-.3.2-.439a1.084,1.084,0,0,1,.289-.348,1.394,1.394,0,0,1,.46-.23,2.475,2.475,0,0,1,.716-.085m3.038.288a1.577,1.577,0,0,0-.15-.075l-.193-.085c-.064-.029-.121-.052-.171-.07a.378.378,0,0,0-.107-.027,5.921,5.921,0,0,1-.412.9,7.681,7.681,0,0,1-.5.786,5.729,5.729,0,0,1-.524.626,5.2,5.2,0,0,1-.465.427.352.352,0,0,1-.246.08.459.459,0,0,1-.214-.1.151.151,0,0,1-.032-.225,1.58,1.58,0,0,1,.267-.289,5.58,5.58,0,0,0,.62-.631,4,4,0,0,0,.428-.62,3.843,3.843,0,0,0,.278-.626q.108-.315.192-.657a.9.9,0,0,1-.235-.4c-.014-.1-.025-.186-.032-.257a1.041,1.041,0,0,1,.021-.273.991.991,0,0,1,.1-.3,2.283,2.283,0,0,1,.23-.315,3.425,3.425,0,0,1,.272-.284,2.1,2.1,0,0,1,.252-.2.366.366,0,0,1,.166-.075.507.507,0,0,1,.166.038.821.821,0,0,1,.192.1,1.036,1.036,0,0,1,.161.139.214.214,0,0,1,.069.139c-.092.178-.162.324-.208.438a2.329,2.329,0,0,0-.107.326c-.025.1-.016.166.027.187q.406.215.813.39c.271.118.538.237.8.358a.242.242,0,0,1,.112.134.3.3,0,0,1-.011.155.952.952,0,0,1-.08.182c-.036.064-.068.128-.1.192-.079.171-.157.346-.236.524s-.15.355-.214.53-.118.342-.161.5a1.707,1.707,0,0,0-.064.432c0,.136.053.2.16.2a.466.466,0,0,0,.225-.085,3.013,3.013,0,0,0,.305-.219q.165-.134.342-.289t.332-.288a3.39,3.39,0,0,1,.278-.219.39.39,0,0,1,.176-.086c.1,0,.15.057.15.171a.7.7,0,0,1-.059.262,2.582,2.582,0,0,1-.144.294,3.133,3.133,0,0,1-.577.706,4.168,4.168,0,0,1-.69.508,3.3,3.3,0,0,1-.7.31,2.066,2.066,0,0,1-.583.1.592.592,0,0,1-.546-.224,1.107,1.107,0,0,1-.139-.589,3.491,3.491,0,0,1,.059-.609,5.423,5.423,0,0,1,.166-.673q.107-.342.241-.689a6.323,6.323,0,0,1,.294-.658m-.8-1.689a.4.4,0,0,0-.011-.069c-.007-.033-.039-.049-.1-.049.007,0,.023.016.048.049a.274.274,0,0,1,.038.166.941.941,0,0,0,.022-.1m5.464,1.711c0-.029,0-.064-.005-.107a.44.44,0,0,0-.032-.128.27.27,0,0,0-.08-.107.257.257,0,0,0-.16-.042.848.848,0,0,0-.508.166,1.507,1.507,0,0,0-.4.444,2.664,2.664,0,0,0-.278.641,3.838,3.838,0,0,0-.139.771.852.852,0,0,0,.171.566.675.675,0,0,0,.545.2,1.713,1.713,0,0,0,.518-.091,3.517,3.517,0,0,0,.583-.251,5.654,5.654,0,0,0,.594-.369,4.753,4.753,0,0,0,.54-.444,1.809,1.809,0,0,0,.171-.144.273.273,0,0,1,.182-.091c.043,0,.077.027.1.08a.393.393,0,0,1,.037.166.89.89,0,0,1-.128.417,2.364,2.364,0,0,1-.353.476,4.554,4.554,0,0,1-.523.476,4.443,4.443,0,0,1-.636.417,3.861,3.861,0,0,1-.7.294,2.387,2.387,0,0,1-.706.113,2.422,2.422,0,0,1-.786-.113,1.447,1.447,0,0,1-.535-.31,1.2,1.2,0,0,1-.305-.46,1.591,1.591,0,0,1-.1-.55,3.147,3.147,0,0,1,.257-1.214,3.954,3.954,0,0,1,.706-1.117,3.794,3.794,0,0,1,1.048-.824,2.693,2.693,0,0,1,1.294-.321.92.92,0,0,1,.444.1,1.063,1.063,0,0,1,.315.257,1.021,1.021,0,0,1,.187.337,1.1,1.1,0,0,1,.059.331,1.05,1.05,0,0,1-.133.465,2.994,2.994,0,0,1-.348.524,5.308,5.308,0,0,1-.481.513,4.8,4.8,0,0,1-.545.444,3.483,3.483,0,0,1-.535.31,1.087,1.087,0,0,1-.438.118h-.064a.477.477,0,0,1-.128-.021.5.5,0,0,1-.315-.214.532.532,0,0,1-.1-.236c0-.049.032-.082.1-.1a1.773,1.773,0,0,0,.567-.171,2.348,2.348,0,0,0,.519-.337,2.034,2.034,0,0,0,.38-.428.816.816,0,0,0,.15-.444m7.1-4.8a.633.633,0,0,1,.315-.182,3.427,3.427,0,0,1,.871-.107.3.3,0,0,1,.219.048.25.25,0,0,1,.086.15.418.418,0,0,1-.011.187,1.3,1.3,0,0,1-.059.171,8.516,8.516,0,0,0-.391.8c-.117.278-.248.577-.39.9q.535.375.818.551c.189.117.325.2.407.262s.126.1.133.123a.394.394,0,0,1,0,.134.7.7,0,0,1-.107.246.5.5,0,0,1-.187.144.48.48,0,0,1-.326.006,1.117,1.117,0,0,1-.23-.07,1.085,1.085,0,0,1-.144-.08c-.043-.029-.087-.061-.134-.1a1.764,1.764,0,0,0-.2-.128c-.064-.036-.128-.075-.193-.118s-.135-.085-.213-.128l-.075.182q-.1.246-.2.487t-.2.487q-.193.46-.369.888c-.117.285-.223.554-.315.808s-.166.483-.219.689a2.189,2.189,0,0,0-.08.535c0,.1.03.157.091.171a.369.369,0,0,0,.229-.038,1.619,1.619,0,0,0,.294-.166c.1-.071.195-.139.273-.2a2.611,2.611,0,0,0,.188-.182c.081-.085.169-.173.262-.262a3.088,3.088,0,0,1,.273-.235.4.4,0,0,1,.209-.1.144.144,0,0,1,.139.134.62.62,0,0,1-.032.246,1.553,1.553,0,0,1-.112.262,1.9,1.9,0,0,1-.1.171,6.389,6.389,0,0,1-.492.577,4.208,4.208,0,0,1-.572.5,2.792,2.792,0,0,1-.642.347,1.805,1.805,0,0,1-.7.118,1.5,1.5,0,0,1-.182-.016.51.51,0,0,1-.2-.07.483.483,0,0,1-.23-.273,1.2,1.2,0,0,1-.069-.422c0-.057,0-.117-.005-.177a.581.581,0,0,1,.016-.177,6.123,6.123,0,0,1,.246-1.267q.2-.69.454-1.374t.514-1.3q.261-.62.444-1.059-.514-.32-1.033-.641t-.973-.594q-.454-.273-.813-.476t-.551-.288a.3.3,0,0,1-.171-.2,1.381,1.381,0,0,1-.064-.353,2.76,2.76,0,0,1,.006-.385,2.7,2.7,0,0,1,.038-.3.278.278,0,0,1,.058-.182.143.143,0,0,1,.133-.022,4.542,4.542,0,0,1,1.268.728q.957.674,2.486,1.775c.057-.135.107-.257.15-.364l.118-.294c.035-.089.072-.173.112-.251a1.636,1.636,0,0,1,.144-.236m2.844,2.93a.3.3,0,0,1,.2.086.985.985,0,0,1,.171.2,1.025,1.025,0,0,1,.15.493.3.3,0,0,1-.038.15.189.189,0,0,1-.123.085,1.536,1.536,0,0,0-.684.412,3.755,3.755,0,0,0-.567.716,4.035,4.035,0,0,0-.39.829,2.37,2.37,0,0,0-.145.738.458.458,0,0,0,.123.374.534.534,0,0,0,.337.1,1.214,1.214,0,0,0,.732-.268,2.391,2.391,0,0,0,.6-.663,1.173,1.173,0,0,1-.423-.433,1.28,1.28,0,0,1-.155-.647.8.8,0,0,1,.1-.374,1.344,1.344,0,0,1,.444-.476,1.028,1.028,0,0,1,.572-.2.648.648,0,0,1,.481.209,1.021,1.021,0,0,1,.2.722,2,2,0,0,1-.016.246c-.011.085-.023.171-.038.256.107-.007.206-.017.3-.032s.178-.033.257-.053c.114-.036.215-.072.305-.108s.169-.071.24-.107a.7.7,0,0,1,.267-.107c.057,0,.086.043.086.128a.579.579,0,0,1-.1.332,1.275,1.275,0,0,1-.262.278,1.641,1.641,0,0,1-.278.187c-.1.053-.2.1-.3.144a3.175,3.175,0,0,1-.583.171,2.622,2.622,0,0,1-.465.053,4.766,4.766,0,0,1-.535.706,4.413,4.413,0,0,1-.673.609,3.458,3.458,0,0,1-.765.428,2.18,2.18,0,0,1-.818.161.908.908,0,0,1-.455-.113,1.221,1.221,0,0,1-.342-.289,1.266,1.266,0,0,1-.219-.39,1.289,1.289,0,0,1-.075-.428,3.894,3.894,0,0,1,.139-.979,5.384,5.384,0,0,1,.4-1.048,5.137,5.137,0,0,1,.648-.978,3.985,3.985,0,0,1,.876-.781,3.17,3.17,0,0,1,.444-.24.976.976,0,0,1,.369-.1m.524,1.925a.351.351,0,0,0-.011-.069c-.007-.033-.039-.048-.1-.048a.121.121,0,0,1,.043.043.2.2,0,0,1,.038.054.194.194,0,0,1,.016.086v.032a.2.2,0,0,1,.006-.053.189.189,0,0,0,.005-.043m10.052-5.4a.352.352,0,0,1,.177-.214,1.38,1.38,0,0,1,.336-.139,2.8,2.8,0,0,1,.4-.08,2.983,2.983,0,0,1,.369-.027,1.2,1.2,0,0,1,.288.032q.129.032.129.214a.463.463,0,0,1-.022.15q-.021.064-.043.139c-.071.178-.181.433-.332.764s-.317.708-.5,1.129-.38.867-.583,1.342-.394.936-.572,1.385q-.182.471-.343.9t-.278.786q-.118.359-.187.62a1.686,1.686,0,0,0-.07.4c0,.136.053.2.161.2a.5.5,0,0,0,.241-.085,2.348,2.348,0,0,0,.3-.219q.161-.134.337-.289l.327-.288c.1-.089.189-.162.267-.219a.369.369,0,0,1,.171-.086c.1,0,.15.057.15.171a1.084,1.084,0,0,1-.225.62,3.7,3.7,0,0,1-.534.6,5.064,5.064,0,0,1-.636.5,3.5,3.5,0,0,1-.529.3,1.84,1.84,0,0,1-.727.161.829.829,0,0,1-.385-.075.507.507,0,0,1-.214-.225.756.756,0,0,1-.085-.321c-.107.079-.228.16-.364.246a3.092,3.092,0,0,1-.882.379,1.183,1.183,0,0,1-.423.038.891.891,0,0,1-.39-.1,1.029,1.029,0,0,1-.283-.225,1.1,1.1,0,0,1-.187-.294,2.341,2.341,0,0,1-.113-.321c-.014-.071-.025-.14-.032-.208s-.011-.13-.011-.187a2.5,2.5,0,0,1,.1-.668,3.447,3.447,0,0,1,.273-.684,4.09,4.09,0,0,1,.428-.652,4.684,4.684,0,0,1,.551-.583,4.023,4.023,0,0,1,.877-.583,2.915,2.915,0,0,1,.984-.283.931.931,0,0,1,.524.118l.235-.6q.47-1.165.824-2.048a11.629,11.629,0,0,0,.5-1.491m-3.582,7.614a.505.505,0,0,0,.213.026,1.207,1.207,0,0,0,.289-.048,2.44,2.44,0,0,0,.289-.1.82.82,0,0,0,.214-.122c.057-.3.128-.605.214-.92s.193-.659.321-1.038c.029-.078.055-.151.081-.219l.08-.219a.646.646,0,0,0-.288,0c-.079.014-.15.031-.214.048a1.091,1.091,0,0,0-.192.075,1.406,1.406,0,0,0-.208.134c-.075.057-.162.128-.262.214a1.32,1.32,0,0,0-.235.273,3.8,3.8,0,0,0-.268.449,3.96,3.96,0,0,0-.219.518,1.345,1.345,0,0,0-.08.492.59.59,0,0,0,.059.246.381.381,0,0,0,.208.193m6.47-2.267c0-.029,0-.064-.006-.107a.439.439,0,0,0-.032-.128.267.267,0,0,0-.081-.107.254.254,0,0,0-.16-.042.848.848,0,0,0-.508.166,1.507,1.507,0,0,0-.4.444,2.65,2.65,0,0,0-.278.641,3.8,3.8,0,0,0-.139.771.85.85,0,0,0,.172.566.673.673,0,0,0,.545.2,1.718,1.718,0,0,0,.519-.091,3.512,3.512,0,0,0,.583-.251,5.691,5.691,0,0,0,.593-.369,4.78,4.78,0,0,0,.54-.444,1.736,1.736,0,0,0,.171-.144.274.274,0,0,1,.182-.091c.043,0,.076.027.1.08a.393.393,0,0,1,.037.166.891.891,0,0,1-.129.417,2.36,2.36,0,0,1-.353.476,4.585,4.585,0,0,1-.523.476,4.48,4.48,0,0,1-.636.417,3.862,3.862,0,0,1-.7.294,2.384,2.384,0,0,1-.706.113,2.423,2.423,0,0,1-.786-.113,1.448,1.448,0,0,1-.534-.31,1.2,1.2,0,0,1-.305-.46,1.582,1.582,0,0,1-.1-.55,3.152,3.152,0,0,1,.256-1.214,3.976,3.976,0,0,1,.706-1.117,3.8,3.8,0,0,1,1.048-.824,2.7,2.7,0,0,1,1.294-.321.919.919,0,0,1,.444.1,1.067,1.067,0,0,1,.315.257,1.015,1.015,0,0,1,.187.337,1.079,1.079,0,0,1,.059.331,1.058,1.058,0,0,1-.133.465,3.019,3.019,0,0,1-.348.524,5.3,5.3,0,0,1-.481.513,4.748,4.748,0,0,1-.546.444,3.478,3.478,0,0,1-.534.31,1.088,1.088,0,0,1-.438.118H479.9a.479.479,0,0,1-.128-.021.5.5,0,0,1-.316-.214.529.529,0,0,1-.1-.236c0-.049.032-.082.1-.1a1.778,1.778,0,0,0,.567-.171,2.356,2.356,0,0,0,.518-.337,2.043,2.043,0,0,0,.38-.428.814.814,0,0,0,.15-.444m3.668-5.347a.349.349,0,0,1,.182-.214,1.5,1.5,0,0,1,.343-.139,2.784,2.784,0,0,1,.4-.08,2.988,2.988,0,0,1,.369-.027,1.221,1.221,0,0,1,.283.032q.133.032.133.214a.473.473,0,0,1-.021.15q-.021.064-.054.139-.117.288-.363.85t-.551,1.261q-.3.7-.636,1.471t-.6,1.475q-.311.8-.514,1.412a3.259,3.259,0,0,0-.2.855c0,.136.054.2.16.2a.5.5,0,0,0,.241-.085,2.645,2.645,0,0,0,.31-.219q.166-.134.343-.289l.326-.288a3.417,3.417,0,0,1,.268-.219.364.364,0,0,1,.171-.086q.15,0,.15.171a1.179,1.179,0,0,1-.267.7,3.614,3.614,0,0,1-.631.652,5.12,5.12,0,0,1-.737.5,2.6,2.6,0,0,1-.589.262,1.5,1.5,0,0,1-.438.064.593.593,0,0,1-.546-.224,1.11,1.11,0,0,1-.139-.589,4.313,4.313,0,0,1,.091-.839q.091-.455.235-.936t.321-.974q.176-.491.358-.951.566-1.434,1-2.5a11.817,11.817,0,0,0,.6-1.759m2.5,4.052a.349.349,0,0,1,.193.049.136.136,0,0,1,.075.112.215.215,0,0,1-.065.128,4.068,4.068,0,0,0-.3.454q-.219.359-.444.818a9.752,9.752,0,0,0-.4.947,2.53,2.53,0,0,0-.177.839c0,.136.054.2.161.2a.5.5,0,0,0,.241-.085,2.646,2.646,0,0,0,.31-.219c.111-.089.224-.186.343-.289s.226-.2.326-.288.189-.162.268-.219a.361.361,0,0,1,.171-.086c.1,0,.15.057.15.171a.674.674,0,0,1-.033.193,1.3,1.3,0,0,1-.086.214,1.374,1.374,0,0,1-.123.219,1.227,1.227,0,0,1-.144.177,5.482,5.482,0,0,1-1.166,1.027,2.1,2.1,0,0,1-1.112.353.592.592,0,0,1-.545-.224,1.1,1.1,0,0,1-.139-.589,4.726,4.726,0,0,1,.091-.85,9.238,9.238,0,0,1,.241-.979,8.012,8.012,0,0,1,.348-.936,4.28,4.28,0,0,1,.412-.743.593.593,0,0,1,.241-.16,2.622,2.622,0,0,1,.4-.128,3.865,3.865,0,0,1,.433-.081,3.04,3.04,0,0,1,.343-.027m-.663-1.2a.567.567,0,0,1,.091-.305.9.9,0,0,1,.23-.245,1.265,1.265,0,0,1,.315-.166,1.007,1.007,0,0,1,.348-.065.635.635,0,0,1,.459.155.482.482,0,0,1,.16.358.679.679,0,0,1-.23.492,1.148,1.148,0,0,1-.519.3.97.97,0,0,1-.236.032.6.6,0,0,1-.454-.172.538.538,0,0,1-.166-.385m3.2,2.47a1.53,1.53,0,0,0-.15-.075l-.193-.085c-.064-.029-.121-.052-.171-.07a.375.375,0,0,0-.107-.027,5.923,5.923,0,0,1-.412.9,7.734,7.734,0,0,1-.5.786,5.759,5.759,0,0,1-.524.626,5.245,5.245,0,0,1-.465.427.353.353,0,0,1-.246.08.46.46,0,0,1-.214-.1.152.152,0,0,1-.032-.225,1.582,1.582,0,0,1,.268-.289,5.58,5.58,0,0,0,.62-.631,4.034,4.034,0,0,0,.428-.62,3.869,3.869,0,0,0,.277-.626q.108-.315.193-.657a.889.889,0,0,1-.235-.4c-.014-.1-.026-.186-.033-.257a1.031,1.031,0,0,1,.022-.273.98.98,0,0,1,.1-.3,2.311,2.311,0,0,1,.23-.315,3.378,3.378,0,0,1,.272-.284,2.129,2.129,0,0,1,.252-.2.365.365,0,0,1,.166-.075.505.505,0,0,1,.166.038.83.83,0,0,1,.192.1,1.051,1.051,0,0,1,.161.139.216.216,0,0,1,.069.139c-.093.178-.162.324-.209.438a2.329,2.329,0,0,0-.107.326c-.025.1-.016.166.027.187q.406.215.813.39t.8.358a.244.244,0,0,1,.113.134.3.3,0,0,1-.011.155.974.974,0,0,1-.08.182c-.036.064-.068.128-.1.192q-.118.257-.236.524t-.214.53c-.064.174-.118.342-.161.5a1.705,1.705,0,0,0-.064.432c0,.136.053.2.16.2a.466.466,0,0,0,.225-.085,2.976,2.976,0,0,0,.305-.219q.165-.134.342-.289t.332-.288a3.486,3.486,0,0,1,.278-.219.388.388,0,0,1,.176-.086q.15,0,.15.171a.709.709,0,0,1-.058.262,2.581,2.581,0,0,1-.145.294,3.132,3.132,0,0,1-.577.706,4.165,4.165,0,0,1-.69.508,3.286,3.286,0,0,1-.695.31,2.068,2.068,0,0,1-.583.1.592.592,0,0,1-.546-.224,1.11,1.11,0,0,1-.139-.589,3.461,3.461,0,0,1,.059-.609,5.312,5.312,0,0,1,.166-.673q.107-.342.241-.689a6.323,6.323,0,0,1,.294-.658m-.8-1.689a.367.367,0,0,0-.011-.069c-.007-.033-.039-.049-.1-.049.007,0,.023.016.048.049a.277.277,0,0,1,.037.166.936.936,0,0,0,.022-.1m5.048.416a.35.35,0,0,1,.193.049.136.136,0,0,1,.075.112.216.216,0,0,1-.064.128,4.011,4.011,0,0,0-.305.454q-.219.359-.444.818a9.76,9.76,0,0,0-.4.947,2.53,2.53,0,0,0-.177.839c0,.136.054.2.161.2a.5.5,0,0,0,.241-.085,2.679,2.679,0,0,0,.31-.219q.166-.134.342-.289l.326-.288c.1-.089.189-.162.268-.219a.364.364,0,0,1,.171-.086c.1,0,.15.057.15.171a.686.686,0,0,1-.033.193,1.364,1.364,0,0,1-.085.214,1.4,1.4,0,0,1-.123.219,1.206,1.206,0,0,1-.144.177,5.488,5.488,0,0,1-1.165,1.027,2.1,2.1,0,0,1-1.112.353.592.592,0,0,1-.545-.224,1.107,1.107,0,0,1-.139-.589,4.7,4.7,0,0,1,.091-.85,9.223,9.223,0,0,1,.241-.979,8.017,8.017,0,0,1,.347-.936,4.347,4.347,0,0,1,.412-.743.593.593,0,0,1,.241-.16,2.612,2.612,0,0,1,.4-.128,3.859,3.859,0,0,1,.432-.081,3.052,3.052,0,0,1,.343-.027m-.663-1.2a.567.567,0,0,1,.091-.305.9.9,0,0,1,.23-.245,1.267,1.267,0,0,1,.316-.166,1,1,0,0,1,.348-.065.635.635,0,0,1,.46.155.484.484,0,0,1,.161.358.678.678,0,0,1-.23.492,1.15,1.15,0,0,1-.519.3.97.97,0,0,1-.235.032.6.6,0,0,1-.454-.172.538.538,0,0,1-.166-.385m5.721,1.2a.351.351,0,0,1,.193.049.136.136,0,0,1,.075.112.215.215,0,0,1-.065.128,4.039,4.039,0,0,0-.3.454q-.22.359-.444.818a9.667,9.667,0,0,0-.4.947,2.53,2.53,0,0,0-.177.839c0,.136.057.2.171.2a.5.5,0,0,0,.24-.085,2.327,2.327,0,0,0,.305-.219c.107-.089.219-.186.337-.289l.326-.288c.1-.089.189-.162.268-.219a.365.365,0,0,1,.171-.086c.1,0,.15.057.15.171a1.262,1.262,0,0,1-.289.781,3.466,3.466,0,0,1-.674.663,4.447,4.447,0,0,1-.769.471,3.354,3.354,0,0,1-.567.225,1.377,1.377,0,0,1-.353.042.61.61,0,0,1-.556-.22,1.1,1.1,0,0,1-.139-.594v-.074a4.279,4.279,0,0,1-.925.663,1.924,1.924,0,0,1-.872.224.605.605,0,0,1-.55-.224,1.074,1.074,0,0,1-.144-.589,4.724,4.724,0,0,1,.091-.85,8.394,8.394,0,0,1,.246-.979,9.512,9.512,0,0,1,.348-.936,4.033,4.033,0,0,1,.406-.743.5.5,0,0,1,.235-.16,2.847,2.847,0,0,1,.4-.128,3.864,3.864,0,0,1,.434-.081,3.025,3.025,0,0,1,.342-.027.368.368,0,0,1,.2.049.134.134,0,0,1,.075.112.217.217,0,0,1-.064.128,3.925,3.925,0,0,0-.3.454q-.22.359-.444.818a9.516,9.516,0,0,0-.4.947,2.523,2.523,0,0,0-.177.839c0,.122.039.19.118.2a.757.757,0,0,0,.513-.23,2.352,2.352,0,0,0,.4-.529,6.132,6.132,0,0,0,.321-.653q.144-.342.273-.609.182-.374.321-.658a1.76,1.76,0,0,1,.331-.476,1.256,1.256,0,0,1,.5-.294,2.715,2.715,0,0,1,.829-.1m7.689,2.62q.257-.256.374-.257c.1,0,.15.057.15.171a.963.963,0,0,1-.123.407,1.692,1.692,0,0,1-.262.4,5.482,5.482,0,0,1-1.165,1.027,2.1,2.1,0,0,1-1.112.353.689.689,0,0,1-.5-.2.914.914,0,0,1-.208-.673h0a1.789,1.789,0,0,1,.144-.69,4.616,4.616,0,0,1,.337-.658q.193-.31.379-.561t.273-.39a.3.3,0,0,0,.053-.118.029.029,0,0,0-.033-.032.948.948,0,0,0-.417.139,2.812,2.812,0,0,0-.551.412,4.75,4.75,0,0,0-.583.663,4.363,4.363,0,0,0-.5.893,4.173,4.173,0,0,1-.268.589,1.454,1.454,0,0,1-.332.417.653.653,0,0,1-.438.193.5.5,0,0,1-.252-.059.834.834,0,0,1-.176-.134.471.471,0,0,1-.107-.15.323.323,0,0,1-.032-.107,2.494,2.494,0,0,1,.144-.813,5.816,5.816,0,0,1,.337-.786q.192-.369.379-.669t.262-.449a.267.267,0,0,0,.043-.107.028.028,0,0,0-.032-.032.942.942,0,0,0-.406.139,2.789,2.789,0,0,0-.551.412,4.741,4.741,0,0,0-.583.663,4.38,4.38,0,0,0-.5.893q-.118.256-.213.476a2.243,2.243,0,0,1-.208.379,1.018,1.018,0,0,1-.241.252.491.491,0,0,1-.289.091.864.864,0,0,1-.492-.193c-.057-.028-.079-.122-.064-.283a3.96,3.96,0,0,1,.112-.6q.091-.359.23-.8t.283-.893c.1-.3.188-.595.273-.877s.153-.533.2-.754a.352.352,0,0,1,.177-.214,1.366,1.366,0,0,1,.342-.139,3.14,3.14,0,0,1,.406-.08,2.927,2.927,0,0,1,.359-.027c.057,0,.111,0,.16.006a.283.283,0,0,1,.128.037.208.208,0,0,1,.129.213.515.515,0,0,1-.022.145c-.014.047-.029.091-.043.133q-.1.225-.224.487c-.085.175-.189.38-.31.615a5.013,5.013,0,0,1,.567-.562,4.715,4.715,0,0,1,.636-.454,3.5,3.5,0,0,1,.658-.305,1.972,1.972,0,0,1,.631-.112,1.128,1.128,0,0,1,.385.053.418.418,0,0,1,.2.15.378.378,0,0,1,.065.214.839.839,0,0,1-.049.262,2.207,2.207,0,0,1-.123.294,5.2,5.2,0,0,1,1.016-.7,2.19,2.19,0,0,1,1.015-.273.885.885,0,0,1,.514.112.362.362,0,0,1,.15.305.768.768,0,0,1-.043.246,2.2,2.2,0,0,1-.117.278,5.512,5.512,0,0,1-.32.55q-.193.294-.4.583t-.374.561a2.525,2.525,0,0,0-.246.487.6.6,0,0,0-.053.224c.007.107.061.16.161.16a.6.6,0,0,0,.261-.08,2.129,2.129,0,0,0,.326-.214q.171-.134.353-.3t.342-.337" transform="translate(-72.661 -47.078)" fill="#a68f54"/>
    <path id="Path_5" data-name="Path 5" d="M371.34,261.206h13.33v2.265H367.165v-15.88h4.176Zm36.391-4.174L414,263.471h-3.365l-6.154-6.312H397.6v6.312h-4.176v-15.88h11.926c5.388,0,8.206,1.4,8.206,4.733,0,2.7-2.024,4.276-5.826,4.708m-2.68-1.909c3.72,0,5.607-.611,5.607-2.7s-1.7-2.672-5.607-2.672H397.6v5.37ZM386.9,247.591h-.679v15.88H390.4v-15.88h-3.5Zm83.024-.255L458.8,257.211l-11.6-9.875h-.246v16.135h4.176v-9.559l7.531,6.4h.219L466,253.968v9.5h4.176V247.336ZM440.57,256.5c0,3.69-1.268,5.217-6.985,5.217s-6.985-1.552-6.985-5.268v-8.856h-3.436v9.136c0,4.886,3.583,7.049,10.476,7.049s10.366-2.214,10.366-7.1v-9.086H440.57Zm-23.812-8.907h-.679v15.88h4.176v-15.88h-3.5Zm-80.309,15.88h-9.218v-15.88h9.218c7.549,0,12.144,2.443,12.144,7.94,0,5.6-4.458,7.94-12.144,7.94m9.19-7.889c0-4.454-3.091-5.828-9.737-5.828h-4.495v11.554H335.9c6.428,0,9.737-1.145,9.737-5.726m14.218-7.991H346.214a9.62,9.62,0,0,1,2.941,2.265h10.7v4.377H351.03a10.845,10.845,0,0,1,.08,1.323c0,.287-.013.566-.033.84h8.779v4.81H349.283a9.1,9.1,0,0,1-2.817,2.265h17.566v-15.88Z" fill="#a68f54"/>
  </g>
</svg>
