<svg xmlns="http://www.w3.org/2000/svg" width="17.908" height="17.869" viewBox="0 0 17.908 17.869">
  <g id="Group_10909" data-name="Group 10909" transform="translate(-1567.092 -6732)">
    <path id="Path_16" data-name="Path 16" d="M107.729,2h-7.238a5.335,5.335,0,0,0-5.334,5.323v7.223a5.335,5.335,0,0,0,5.334,5.323h7.238a5.335,5.335,0,0,0,5.336-5.323V7.323A5.335,5.335,0,0,0,107.729,2Zm3.533,5.323v7.223a3.529,3.529,0,0,1-3.533,3.526h-7.238a3.529,3.529,0,0,1-3.533-3.526V7.323A3.529,3.529,0,0,1,100.491,3.8h7.238a3.529,3.529,0,0,1,3.533,3.526Z" transform="translate(1471.935 6730)"/>
    <path id="Path_17" data-name="Path 17" d="M114.316,16.45a4.621,4.621,0,1,0,4.63,4.621A4.621,4.621,0,0,0,114.316,16.45Zm0,7.447a2.824,2.824,0,1,1,2.83-2.824A2.824,2.824,0,0,1,114.316,23.9Z" transform="translate(1461.73 6719.863)"/>
    <path id="Path_18" data-name="Path 18" d="M139.2,13.963a1.11,1.11,0,1,1-1.112-1.108h0a1.109,1.109,0,0,1,1.11,1.107Z" transform="translate(1442.593 6722.385)"/>
  </g>
</svg>
