<svg xmlns="http://www.w3.org/2000/svg" width="25.555" height="24.892" viewBox="0 0 25.555 24.892">
  <path id="Path_23738" data-name="Path 23738" d="M4588.289,1720.936a10.5,10.5,0,0,0,.064-2.3,4.836,4.836,0,0,0-1.715-3.639,10.668,10.668,0,0,0,.1-3.115,4.992,4.992,0,0,0-.6-1.857,3.28,3.28,0,0,0-1.3-1.255,1.514,1.514,0,0,0-.542-.982,1.847,1.847,0,0,0-1.323-.117,10.732,10.732,0,0,0-2.205-.694,6.8,6.8,0,0,0-2.137-.1,3.949,3.949,0,0,0-1.853.7q-.318-.171-.656-.317a11.917,11.917,0,0,0-3.945-.755,5.135,5.135,0,0,0-4.066,1.311,1.513,1.513,0,0,0-1.081.31,1.849,1.849,0,0,0-.409,1.26,10.458,10.458,0,0,0-1.181,1.961,4.954,4.954,0,0,0-.337,3.965,7.744,7.744,0,0,0-1.578,2.4,4.664,4.664,0,0,0,.014,4.112,1.511,1.511,0,0,0-.108,1.115,1.853,1.853,0,0,0,1.032.849c.438.662,2.508,3.573,5.134,3.573h.039a5.518,5.518,0,0,0,1.734,2.334,5.005,5.005,0,0,0,3.126,1.158c.111,0,.224,0,.336-.013a1.5,1.5,0,0,0,.973.555h.043a1.945,1.945,0,0,0,1.174-.616c.745-.214,4.567-1.437,4.913-4.07l.194-.023a10.979,10.979,0,0,0,3.281-.884,4.964,4.964,0,0,0,1.588-1.136,3.275,3.275,0,0,0,.8-1.618,1.508,1.508,0,0,0,.772-.814,1.84,1.84,0,0,0-.285-1.289m-5.549-12.422.149.073.159-.045a1.44,1.44,0,0,1,.759-.041.988.988,0,0,1,.2.579l.016.265.243.107a2.963,2.963,0,0,1,1.617,2.545,10.09,10.09,0,0,1-.145,3.123,6.068,6.068,0,0,1-1.125,2.588,13.342,13.342,0,0,0-.463-2.731,5.683,5.683,0,0,0-4.111-4.183q-.125-.036-.246-.066a7.112,7.112,0,0,0-2.2-2.645c1.995-1.074,5.117.416,5.15.433m-13.45,12.863c-1.077-2.518-.351-5.966.359-7.548l.026-.06c.393-.881,1.313-2.944,5.443-2.944a4.329,4.329,0,0,1,2.889,1.387,6.288,6.288,0,0,1,1.3,2.065l-.043-.045c-.1-.1-.2-.184-.3-.266a.638.638,0,0,0-.488-.344,4.9,4.9,0,0,0-2.535-.66c-2.29.02-3.675,2.449-4.342,4.058a14.141,14.141,0,0,1-.141-3.575.434.434,0,0,0-.862-.1,14.687,14.687,0,0,0-.008,2.62,8.358,8.358,0,0,0,1.565,4.6c.075.093.152.181.232.266a12.26,12.26,0,0,0,2.316,3.2l0,0,0,0c.108.106.216.209.325.31a5.92,5.92,0,0,1-2.846-.277,4.763,4.763,0,0,1-2.9-2.7m3.545-1.351a5.376,5.376,0,0,1-.836-1.525,11.978,11.978,0,0,1,.979-2.322,7.049,7.049,0,0,1,.841-1.2,2.787,2.787,0,0,0,.259.26,4.607,4.607,0,0,0,2.182,1h.005c.084.017.171.033.257.047.276.045,1.116.183,1.44,1.971a11.656,11.656,0,0,1,.089,2.653,4.147,4.147,0,0,1-2.1.517,3.8,3.8,0,0,1-3.115-1.4m3.239-4.727a3.138,3.138,0,0,1-1.624-.917,2.522,2.522,0,0,1,1.5-.552,4.135,4.135,0,0,1,1.77.37l-.078.038a4.059,4.059,0,0,0-1.572,1.061m2.743,2.8a4.343,4.343,0,0,0-.63-1.682,2.26,2.26,0,0,0-1.111-.883l.081-.053a8.777,8.777,0,0,1,.867-.46c.205-.1.383-.185.528-.269.036.032.07.064.1.1a5.075,5.075,0,0,1,1.245,3.7,5.218,5.218,0,0,1-.949,1.623,10.581,10.581,0,0,0-.135-2.071m-3.546,5.275a11.488,11.488,0,0,1-1.175-1.394,5.308,5.308,0,0,0,1.854.312,4.667,4.667,0,0,0,3.637-1.531,8.042,8.042,0,0,0,1.736-4.685,14.716,14.716,0,0,0,.012-2.726.434.434,0,0,0-.863.094,13.3,13.3,0,0,1,.04,1.724,9.884,9.884,0,0,0-.315-1.015,7.244,7.244,0,0,0-1.569-2.546q-.116-.119-.235-.229a7.48,7.48,0,0,1,.865.119.434.434,0,0,0,.327.073c.071.018.142.037.213.057a4.8,4.8,0,0,1,3.512,3.573,10.651,10.651,0,0,1,.425,3.654.419.419,0,0,0-.012.13,5.64,5.64,0,0,1-2.467,4.027c-1.738,1.383-3.7,1.5-5.985.362m-7.88-13.569.108-.131-.008-.168a1.419,1.419,0,0,1,.129-.75.991.991,0,0,1,.609-.064l.261.044.158-.213c1.376-1.849,5.716-1.077,7.134-.471a6.226,6.226,0,0,1,2.912,2.483,8.236,8.236,0,0,0-1.532-.025,4.563,4.563,0,0,0-2.042-.551,7.349,7.349,0,0,0-4.695,1.358,5.145,5.145,0,0,0-1.482,1.969,10.089,10.089,0,0,0-3.122,1.45c-.673-2.184,1.547-4.9,1.571-4.931m-2.272,13.392-.083-.133-.148-.05a1.437,1.437,0,0,1-.648-.4.987.987,0,0,1,.164-.589l.137-.227-.14-.226a3.836,3.836,0,0,1-.076-3.537,6.476,6.476,0,0,1,1.574-2.286,9.164,9.164,0,0,1,2.631-1.432,11.164,11.164,0,0,0-.038,7.4,6,6,0,0,0,.681,1.2c0,.01,0,.019,0,.029a13.939,13.939,0,0,0,.252,3.53c-2.337-.151-4.284-3.249-4.3-3.282m11.565,6.769-.123.032-.086.093a1.442,1.442,0,0,1-.626.43c-.116-.006-.345-.212-.47-.391l-.151-.218-.264.035a3.54,3.54,0,0,1-.469.031,4.15,4.15,0,0,1-2.584-.967,4.4,4.4,0,0,1-1.534-2.208,14.063,14.063,0,0,1-.362-2.979,5.927,5.927,0,0,0,1.889,1.071,6.48,6.48,0,0,0,2.236.385,8.642,8.642,0,0,0,1.791-.2,9.006,9.006,0,0,0,1.819,1.032,8.249,8.249,0,0,0,3.212.641h.083c-.472,2.165-4.321,3.2-4.362,3.211m11.059-7.989a.991.991,0,0,1-.492.364l-.247.095-.029.264a2.969,2.969,0,0,1-1.936,2.312,10.142,10.142,0,0,1-3.021.807,7.475,7.475,0,0,1-4.7-.875,6.066,6.066,0,0,0,.877.065,5.544,5.544,0,0,0,1.04-.1,5.805,5.805,0,0,0,2.563-1.22,7.089,7.089,0,0,0,2.439-3.113,6.354,6.354,0,0,0,.337-1.433,8.12,8.12,0,0,0,1.86-3.186c1.565,1.582.984,4.954.978,4.991l-.03.171.094.145a1.427,1.427,0,0,1,.27.711" transform="translate(-4563.057 -1706.495)" fill="#a68f54"/>
</svg>
