<svg xmlns="http://www.w3.org/2000/svg" width="18.908" height="18.869" viewBox="0 0 18.908 18.869">
  <g id="Group_11458" data-name="Group 11458" transform="translate(-338.5 -653.5)">
    <path id="Path_23750" data-name="Path 23750" d="M107.729,2h-7.238a5.335,5.335,0,0,0-5.334,5.323v7.223a5.335,5.335,0,0,0,5.334,5.323h7.238a5.335,5.335,0,0,0,5.336-5.323V7.323A5.335,5.335,0,0,0,107.729,2Zm3.533,5.323v7.223a3.529,3.529,0,0,1-3.533,3.526h-7.238a3.529,3.529,0,0,1-3.533-3.526V7.323A3.529,3.529,0,0,1,100.491,3.8h7.238a3.529,3.529,0,0,1,3.533,3.526Z" transform="translate(243.843 652)" stroke="rgba(0,0,0,0)" stroke-miterlimit="10" stroke-width="1"/>
    <rect id="Rectangle_606" data-name="Rectangle 606" width="16" height="16" rx="3" transform="translate(339.954 655)" stroke="rgba(0,0,0,0)" stroke-miterlimit="10" stroke-width="1"/>
    <path id="layer2" d="M7.734,18.64H10.29a3.251,3.251,0,1,1-.882-3.486.352.352,0,0,0,.479,0l.939-.884a.351.351,0,0,0,0-.51,5.237,5.237,0,1,0,1.628,4.1c0-.035.007-1.2.007-1.2H7.734A.351.351,0,0,0,7.383,17v1.286A.351.351,0,0,0,7.734,18.64Zm0,0" transform="translate(341.011 645.676)" fill="#fff"/>
  </g>
</svg>
