<svg xmlns="http://www.w3.org/2000/svg" width="22" height="19.75" viewBox="0 0 22 19.75">
  <g id="Group_86" data-name="Group 86" transform="translate(-1551 -60.601)">
    <path id="Path_19" data-name="Path 19" d="M21.65,13.9A9.525,9.525,0,0,0,23,9.212,5.212,5.212,0,0,0,17.787,4H17.75A5.693,5.693,0,0,0,12.5,7.487,5.693,5.693,0,0,0,7.25,4,5.213,5.213,0,0,0,2,9.175v.037c0,4.5,3.862,9.037,10.5,13.537l.9-.6" transform="translate(1549.5 57.102)" fill="none" stroke="#a68f54" stroke-linecap="round" stroke-linejoin="round" stroke-width="1"/>
    <path id="Path_20" data-name="Path 20" d="M3.35,13.9A9.525,9.525,0,0,1,2,9.212,5.212,5.212,0,0,1,7.212,4H7.25A5.693,5.693,0,0,1,12.5,7.487,5.693,5.693,0,0,1,17.75,4,5.213,5.213,0,0,1,23,9.175v.037c0,4.5-3.862,9.037-10.5,13.537l-.9-.6" transform="translate(1549.5 57.102)" fill="none" stroke="#a68f54" stroke-linecap="round" stroke-linejoin="round" stroke-width="1"/>
  </g>
</svg>
