<svg xmlns="http://www.w3.org/2000/svg" width="29" height="29" viewBox="0 0 29 29">
  <g id="Group_11457" data-name="Group 11457" transform="translate(-1636 -616)">
    <g id="Path_23758" data-name="Path 23758" transform="translate(1636 616)" fill="none">
      <path d="M14.5,0a14.5,14.5,0,0,1,4.685,28.226A14.041,14.041,0,0,1,14.5,29a14.5,14.5,0,0,1,0-29Z" stroke="none"/>
      <path d="M 14.5 1 C 10.89402008056641 1 7.503870010375977 2.404239654541016 4.954059600830078 4.954059600830078 C 2.404239654541016 7.503870010375977 1 10.89402008056641 1 14.5 C 1 18.10597991943359 2.404239654541016 21.49612998962402 4.954059600830078 24.04594039916992 C 7.503870010375977 26.59576034545898 10.89402008056641 28 14.5 28 C 16.0264892578125 28 17.60844039916992 27.74040031433105 18.84289932250977 27.28677940368652 C 24.40563011169434 25.26066017150879 28 20.24155044555664 28 14.5 C 28 10.89402008056641 26.59576034545898 7.503870010375977 24.04594039916992 4.954059600830078 C 21.49612998962402 2.404239654541016 18.10597991943359 1 14.5 1 M 14.5 0 C 22.50812911987305 0 29 6.491870880126953 29 14.5 C 29 20.76235961914063 25.03005981445313 26.09749031066895 19.18513870239258 28.22639083862305 C 17.91947937011719 28.69148063659668 16.24576950073242 29 14.5 29 C 6.491870880126953 29 0 22.50812911987305 0 14.5 C 0 6.491870880126953 6.491870880126953 0 14.5 0 Z" stroke="none" fill="#000"/>
    </g>
    <g id="Group_10976" data-name="Group 10976" transform="translate(1640.5 620.601)">
      <line id="Line_109" data-name="Line 109" x2="19" transform="translate(0 9.852)" fill="none" stroke="#000" stroke-width="1"/>
      <line id="Line_110" data-name="Line 110" x2="19" transform="translate(9.852) rotate(90)" fill="none" stroke="#000" stroke-width="1"/>
    </g>
  </g>
</svg>
