<svg xmlns="http://www.w3.org/2000/svg" width="12.039" height="10.749" viewBox="0 0 12.039 10.749">
  <g id="Group_11053" data-name="Group 11053" transform="translate(-1551.5 -61.101)">
    <path id="Path_19" data-name="Path 19" d="M13.265,9.675a5.46,5.46,0,0,0,.774-2.687A2.988,2.988,0,0,0,11.05,4h-.021a3.263,3.263,0,0,0-3.01,2A3.263,3.263,0,0,0,5.01,4,2.988,2.988,0,0,0,2,6.966v.021c0,2.58,2.214,5.181,6.019,7.761l.516-.344" transform="translate(1549.5 57.102)" fill="#a68f54"/>
    <path id="Path_20" data-name="Path 20" d="M2.774,9.675A5.46,5.46,0,0,1,2,6.988,2.988,2.988,0,0,1,4.988,4H5.01a3.263,3.263,0,0,1,3.01,2,3.263,3.263,0,0,1,3.01-2,2.988,2.988,0,0,1,3.01,2.967v.021c0,2.58-2.214,5.181-6.019,7.761L7.5,14.4" transform="translate(1549.5 57.102)" fill="#a68f54"/>
  </g>
</svg>
