<svg xmlns="http://www.w3.org/2000/svg" width="16" height="15.407" viewBox="0 0 16 15.407">
  <g id="layer1" transform="translate(-5 -6)" fill="none" stroke-linecap="round" stroke-linejoin="round" stroke-miterlimit="10">
    <path d="M13,18.444,7.963,21.407l1.185-5.63L5,11.926l5.63-.593L13,6l2.37,5.333,5.63.593-4.148,3.852,1.185,5.63Z" stroke="none"/>
    <path d="M 9.408078193664551 19.3972110748291 L 12.49293804168701 17.58256721496582 C 12.64941310882568 17.49052238464355 12.82468509674072 17.44449996948242 12.99995803833008 17.44449996948242 C 13.17523097991943 17.44449996948242 13.35050296783447 17.49052238464355 13.50697803497314 17.58256721496582 L 16.59184455871582 19.3972110748291 L 15.87323760986328 15.98382759094238 C 15.80090808868408 15.64025688171387 15.91405773162842 15.28392696380615 16.17133712768555 15.04502773284912 L 18.70733451843262 12.69015121459961 L 15.26563835144043 12.32786750793457 C 14.91014766693115 12.29044723510742 14.60167789459229 12.06612682342529 14.45650768280029 11.73949718475342 L 12.99995803833008 8.462228775024414 L 11.54340839385986 11.73949718475342 C 11.39823818206787 12.06612682342529 11.089768409729 12.29044723510742 10.73427772521973 12.32786750793457 L 7.292581081390381 12.69015121459961 L 9.828577995300293 15.04502773284912 C 10.08585834503174 15.28392696380615 10.19900798797607 15.64025688171387 10.12667846679688 15.98382759094238 L 9.408078193664551 19.3972110748291 M 18.03697776794434 21.4074764251709 L 12.99995803833008 18.44449806213379 L 7.962947845458984 21.4074764251709 L 9.148128509521484 15.77781772613525 L 4.999998092651367 11.92594718933105 L 10.62959766387939 11.3333568572998 L 12.99995803833008 5.999997138977051 L 15.37031841278076 11.3333568572998 L 20.99991798400879 11.92594718933105 L 16.85178756713867 15.77781772613525 L 18.03697776794434 21.4074764251709 Z" stroke="none" fill="#a68f54"/>
  </g>
</svg>
