<svg xmlns="http://www.w3.org/2000/svg" width="32.762" height="28.499" viewBox="0 0 32.762 28.499">
  <g id="Group_11496" data-name="Group 11496" transform="translate(-1550.75 -60.351)">
    <path id="Path_19" data-name="Path 19" d="M31.252,18.255a13.384,13.384,0,0,0,2.01-6.75A7.636,7.636,0,0,0,25.5,4h-.056a8.482,8.482,0,0,0-7.815,5.022A8.482,8.482,0,0,0,9.815,4,7.641,7.641,0,0,0,2,11.451v.054C2,17.985,7.75,24.519,17.631,31l1.34-.864" transform="translate(1549.5 57.102)" fill="none" stroke="#a68f54" stroke-linecap="round" stroke-linejoin="round" stroke-width="1.5"/>
    <path id="Path_20" data-name="Path 20" d="M4.01,18.255A13.384,13.384,0,0,1,2,11.505,7.636,7.636,0,0,1,9.76,4h.056a8.482,8.482,0,0,1,7.815,5.022A8.482,8.482,0,0,1,25.446,4a7.641,7.641,0,0,1,7.815,7.452v.054c0,6.48-5.75,13.013-15.631,19.493l-1.34-.864" transform="translate(1549.5 57.102)" fill="none" stroke="#a68f54" stroke-linecap="round" stroke-linejoin="round" stroke-width="1.5"/>
  </g>
</svg>
