<svg xmlns="http://www.w3.org/2000/svg" width="21.061" height="18.541" viewBox="0 0 21.061 18.541">
  <g id="Group_11615" data-name="Group 11615" transform="translate(-2391.657 -1074.121)">
    <path id="Path_23741" data-name="Path 23741" d="M2412.209,1075.191a.481.481,0,0,0,.006-.144c0-.014,0-.027-.005-.04a.461.461,0,0,0-.052-.149l0-.006,0,0s-.008-.007-.011-.012a.467.467,0,0,0-.1-.109c-.011-.008-.021-.017-.032-.024a.469.469,0,0,0-.144-.066c-.008,0-.016,0-.025,0a.47.47,0,0,0-.091-.012h-19.1a.475.475,0,0,0-.313.832l7.727,6.8,1.669,9.519a.475.475,0,0,0,.386.386.484.484,0,0,0,.082.007.476.476,0,0,0,.412-.238l9.55-16.591a.488.488,0,0,0,.049-.123C2412.208,1075.2,2412.208,1075.2,2412.209,1075.191Z" transform="translate(0 0)" fill="none" stroke="#a68f54" stroke-miterlimit="10" stroke-width="1"/>
    <line id="Line_117" data-name="Line 117" y1="7.402" x2="12.092" transform="translate(2400.059 1074.847)" fill="none" stroke="#a68f54" stroke-miterlimit="10" stroke-width="1"/>
  </g>
</svg>
